<?xml version="1.0" standalone="no"?>
<!DOCTYPE svg PUBLIC "-//W3C//DTD SVG 20010904//EN"
 "http://www.w3.org/TR/2001/REC-SVG-20010904/DTD/svg10.dtd">
<svg version="1.0" xmlns="http://www.w3.org/2000/svg"
 width="566.000000pt" height="566.000000pt" viewBox="0 0 566.000000 566.000000"
 preserveAspectRatio="xMidYMid meet">
<metadata>
Created by potrace 1.14, written by Peter Selinger 2001-2017
</metadata>
<g transform="translate(0.000000,566.000000) scale(0.100000,-0.100000)"
fill="#000000" stroke="none">
<path d="M4272 5262 c-24 -4 -134 -110 -127 -122 3 -5 -2 -11 -11 -14 -9 -3
-12 -11 -8 -18 5 -7 2 -9 -7 -6 -9 4 -15 -1 -16 -11 -1 -9 -13 -48 -27 -88
-14 -39 -27 -79 -29 -90 -1 -10 -7 -24 -11 -32 -7 -11 -5 -13 7 -8 16 6 15 4
0 -20 -10 -15 -12 -24 -5 -20 8 6 12 1 12 -13 0 -12 -4 -19 -8 -16 -4 2 -7
-10 -7 -27 1 -18 -6 -43 -14 -57 l-14 -25 22 19 c11 11 24 16 28 13 3 -4 2 -7
-4 -7 -7 0 -8 -15 -3 -42 5 -24 6 -46 4 -49 -2 -4 3 -12 10 -19 15 -12 15 -27
-3 -73 -13 -35 -14 -40 -2 -32 5 3 12 1 15 -3 3 -5 -12 -15 -34 -22 -54 -18
-88 -55 -73 -79 6 -10 10 -27 9 -37 -2 -11 0 -26 4 -34 5 -9 3 -23 -5 -34 -10
-13 -11 -25 -4 -43 13 -35 13 -35 -37 -67 -86 -54 -81 -104 20 -231 48 -60 56
-76 57 -115 2 -77 6 -142 12 -210 4 -36 9 -99 12 -140 3 -41 12 -104 20 -140
8 -36 17 -76 19 -90 3 -14 7 -41 11 -60 3 -19 8 -42 10 -50 3 -9 -4 -39 -14
-67 -10 -29 -16 -55 -12 -59 5 -6 -9 -2 -45 12 -6 3 -21 -4 -34 -14 -26 -21
-30 -73 -8 -99 7 -9 12 -24 10 -35 -2 -10 2 -18 9 -18 8 0 9 -12 4 -42 -4 -24
-9 -56 -12 -73 -3 -17 -25 -51 -49 -77 -44 -47 -51 -69 -45 -138 3 -31 3 -30
40 -36 22 -4 33 -1 37 10 13 35 19 11 18 -77 -1 -82 -4 -99 -32 -156 -21 -42
-30 -72 -26 -85 4 -12 3 -18 -1 -14 -4 4 -13 33 -20 65 -7 32 -27 121 -44 198
-18 77 -43 192 -57 256 -28 134 -79 324 -96 356 -10 21 -6 28 47 80 35 35 67
78 82 112 24 53 24 59 19 243 -6 177 -8 209 -22 333 -3 28 -7 106 -9 175 -3
98 -8 137 -25 180 -12 30 -26 59 -31 65 -18 18 -9 28 10 11 21 -19 41 -15 37
7 -7 33 -23 51 -75 86 -70 46 -113 59 -183 54 -54 -4 -65 2 -72 37 -1 3 -5 11
-10 18 -18 29 12 41 97 37 69 -3 89 0 126 18 54 27 62 44 24 53 -61 13 -93 36
-137 99 -27 36 -55 92 -67 130 -20 67 -69 165 -98 199 -9 10 -28 27 -43 38
-22 15 -31 17 -49 7 -12 -6 -19 -7 -15 -1 6 10 -11 6 -85 -20 -15 -5 -35 -17
-46 -27 -10 -10 -44 -34 -76 -54 -31 -20 -57 -41 -57 -46 0 -6 -25 -35 -57
-65 -53 -52 -56 -57 -44 -82 17 -38 -3 -93 -45 -124 -37 -28 -38 -40 -6 -56
37 -18 36 -22 -11 -66 -52 -50 -103 -127 -117 -178 -7 -28 -21 -42 -66 -69
-62 -37 -124 -97 -124 -120 0 -14 11 -7 59 38 14 12 16 10 23 -20 4 -19 3 -35
-3 -37 -5 -2 -14 -13 -20 -24 -10 -19 -9 -20 16 -16 25 5 26 4 20 -31 -3 -20
-7 -56 -9 -81 -5 -54 -16 -123 -22 -129 -7 -7 -34 21 -32 33 4 20 -24 136 -36
145 -7 6 -26 6 -51 0 -71 -17 -79 -19 -143 -30 -54 -10 -66 -9 -88 6 -42 27
-68 58 -72 84 -2 13 -9 36 -17 50 -7 14 -18 45 -24 67 -8 28 -23 51 -46 68
-19 15 -35 33 -35 40 0 7 -9 25 -20 39 -11 14 -20 37 -20 52 0 29 -57 125 -87
146 -33 24 -75 95 -70 121 3 19 9 12 33 -39 16 -35 35 -65 43 -68 10 -4 11 -2
3 8 -6 7 -13 25 -16 40 -3 15 -18 56 -35 92 -26 54 -29 69 -20 88 9 19 7 31
-5 55 -9 17 -19 53 -21 79 -10 89 -14 113 -31 168 -24 75 -85 133 -66 63 4
-15 5 -59 4 -98 -3 -62 -6 -71 -20 -64 -10 4 -27 7 -39 7 -22 -1 -23 3 -24 66
-1 36 0 83 1 104 2 45 -18 50 -50 10 -25 -32 -62 -111 -65 -138 -4 -38 -16
-65 -31 -65 -8 0 -14 -3 -14 -7 0 -11 -69 -57 -91 -60 -10 -1 -21 2 -24 7 -7
12 -25 13 -25 2 0 -5 11 -14 24 -22 23 -12 24 -14 10 -36 -9 -12 -18 -38 -21
-56 -6 -40 -20 -68 -34 -68 -6 0 -8 -4 -4 -10 3 -5 12 -7 20 -4 11 5 12 -1 4
-32 -13 -46 -26 -60 -67 -69 -18 -4 -52 -21 -75 -39 -23 -17 -67 -46 -97 -64
-30 -18 -63 -38 -73 -46 -19 -15 -60 -85 -98 -166 -11 -25 -26 -52 -34 -60
-14 -17 -28 -81 -30 -150 -2 -25 -4 -52 -6 -60 -3 -9 2 -14 11 -13 13 2 15 -5
12 -33 -3 -27 -1 -35 8 -29 15 9 9 -50 -9 -84 -7 -12 -11 -29 -10 -39 1 -9 -4
-31 -11 -48 l-13 -31 -330 220 c-253 170 -335 230 -353 259 -13 21 -29 38 -34
38 -8 0 -119 49 -152 67 -3 2 -16 -11 -29 -28 l-22 -31 69 -66 c56 -53 78 -67
114 -74 60 -11 726 -453 711 -472 -5 -6 -12 -23 -15 -38 -2 -14 -9 -35 -15
-46 -15 -29 -14 -107 2 -121 20 -16 37 -81 31 -117 -3 -23 14 -90 59 -225 58
-174 64 -203 65 -275 0 -45 5 -90 10 -100 19 -36 18 -65 -8 -194 -5 -25 -12
-63 -15 -84 -3 -21 -7 -48 -10 -60 -2 -12 -7 -39 -10 -61 -6 -48 -13 -89 -21
-130 -3 -16 -12 -77 -20 -135 -8 -57 -16 -111 -19 -120 -5 -20 -45 -340 -50
-405 -2 -27 -7 -78 -10 -113 l-7 -62 34 -14 c18 -7 54 -20 80 -30 56 -21 54
-13 74 -246 13 -149 12 -185 -3 -202 -11 -13 -13 -24 -5 -45 8 -24 3 -40 -29
-105 -22 -43 -39 -84 -39 -92 0 -8 -4 -16 -8 -18 -4 -1 -20 -20 -36 -40 -23
-31 -26 -43 -20 -70 4 -18 7 -43 5 -55 -3 -25 33 -53 69 -53 14 0 31 -4 39 -9
7 -5 27 -5 45 -2 17 4 42 4 56 1 14 -4 31 -2 38 3 6 5 12 7 12 3 0 -4 13 0 30
9 16 8 31 15 32 14 2 -1 12 1 23 4 22 7 41 44 50 97 13 82 18 100 24 100 3 0
16 15 29 33 20 30 21 39 12 86 -5 29 -12 57 -16 62 -3 5 0 25 8 44 9 25 9 41
2 53 -14 24 -9 130 12 247 1 6 2 17 3 26 1 14 7 15 38 8 149 -33 218 -41 318
-34 58 3 105 3 106 -2 0 -4 3 -19 6 -33 5 -23 6 -43 3 -135 -1 -16 -1 -41 0
-55 0 -14 -2 -38 -4 -55 -3 -16 -8 -58 -12 -92 -6 -60 -5 -63 19 -72 13 -5 33
-8 43 -7 11 2 22 -1 25 -6 5 -8 48 -14 153 -21 15 -1 36 -12 45 -23 20 -25 48
-41 87 -49 46 -10 174 -13 179 -5 3 5 13 6 24 3 28 -7 78 23 85 52 8 30 53 36
62 8 3 -10 9 -24 13 -32 18 -35 172 -61 240 -40 94 28 104 29 133 8 33 -24 51
-28 193 -41 6 0 39 7 75 17 36 9 74 19 85 21 11 2 32 6 47 9 14 4 29 2 32 -4
8 -12 94 -30 156 -32 25 -1 51 -7 58 -12 8 -6 12 -6 12 2 0 7 4 10 9 7 4 -3
25 3 46 14 21 11 41 17 45 15 17 -10 237 -7 264 4 23 9 32 9 45 -3 23 -21 65
-12 131 28 30 19 75 44 99 56 41 20 43 24 27 35 -14 11 -15 16 -5 33 16 25
100 45 204 47 44 1 90 7 103 14 59 31 194 30 274 -4 13 -5 19 1 26 28 5 19 9
48 7 63 -1 16 -4 47 -6 69 l-4 40 92 -3 c50 -2 104 -7 120 -11 27 -7 28 -10
27 -67 -1 -32 -4 -83 -7 -111 -3 -29 -1 -69 4 -88 11 -40 34 -53 101 -56 51
-3 67 -10 131 -61 27 -21 61 -41 75 -44 15 -4 32 -9 37 -13 17 -10 55 -8 55 3
0 6 4 6 11 -1 22 -22 110 15 128 54 14 31 15 29 -19 43 -62 26 -277 282 -306
365 -10 29 -11 32 -29 135 -9 52 -18 97 -20 100 -2 3 -6 39 -10 80 -7 86 -49
283 -71 335 -8 20 -16 70 -18 113 -2 64 -9 92 -40 160 -20 45 -34 86 -31 92 3
5 -1 25 -9 44 -8 19 -31 100 -50 181 -20 80 -47 179 -61 218 -21 65 -47 169
-59 237 -2 14 -13 48 -24 75 -11 28 -23 70 -27 95 -8 50 -52 237 -62 260 -8
20 -7 16 -22 84 -8 34 -10 79 -7 105 4 25 8 64 10 87 2 41 36 107 36 71 0 -9
14 -56 31 -105 17 -48 37 -114 44 -147 8 -33 26 -103 40 -155 15 -52 33 -124
40 -160 39 -186 80 -297 113 -308 32 -10 84 97 99 203 2 17 8 53 14 80 6 28
13 68 15 90 2 22 6 49 9 60 7 33 19 215 18 290 0 112 -11 347 -18 380 -11 58
-43 111 -106 176 -70 72 -75 79 -116 137 -16 22 -44 59 -64 83 -21 25 -41 65
-48 94 -28 109 -53 150 -125 197 -32 22 -52 28 -91 27 -27 0 -59 -4 -69 -8
-13 -5 -25 -2 -37 10 -9 9 -25 22 -35 27 -16 9 -17 14 -6 31 6 12 12 27 12 36
0 8 14 30 30 48 22 26 30 45 30 74 0 21 5 44 11 50 12 12 19 72 9 78 -4 2 -8
27 -9 55 -1 47 -17 85 -48 118 -7 7 -18 21 -25 31 -7 10 -32 30 -55 44 -36 23
-41 30 -35 49 25 77 -27 166 -110 189 -24 6 -45 12 -48 13 -3 1 -15 0 -28 -2z
m59 -223 c20 -10 20 -11 3 -30 -9 -10 -23 -19 -30 -19 -16 0 -78 -73 -99 -117
-9 -19 -19 -32 -22 -29 -4 3 5 27 19 53 14 27 29 59 33 72 8 26 53 81 67 81 5
0 18 -5 29 -11z m-135 -316 c9 -21 18 -60 21 -88 4 -43 2 -52 -17 -63 -25 -15
-40 -8 -22 10 15 15 16 31 1 22 -8 -5 -8 -1 0 14 6 12 7 23 2 26 -4 3 -7 17
-5 31 1 14 -1 39 -6 55 -12 43 7 37 26 -7z m-1737 -1619 c44 -25 105 -54 138
-64 l58 -18 -1 -53 c-2 -78 -12 -227 -20 -298 -6 -57 -8 -61 -28 -55 -11 3
-25 12 -31 18 -5 7 -41 33 -78 58 -42 28 -64 49 -57 53 18 11 3 53 -34 99 -51
63 -54 73 -55 194 0 92 3 112 15 112 8 0 50 -21 93 -46z m-141 -454 c15 -25
33 -25 63 -2 22 19 23 18 83 -22 34 -22 66 -41 72 -42 6 -1 23 -13 39 -28 15
-14 32 -26 37 -26 6 0 7 -17 4 -37 -3 -21 -8 -69 -11 -108 -3 -38 -8 -88 -10
-110 -2 -22 -7 -83 -10 -135 -4 -52 -8 -111 -10 -130 -2 -19 -6 -69 -9 -110
-8 -89 -15 -165 -21 -200 -5 -27 -43 -268 -50 -310 -2 -14 -6 -47 -10 -75 -3
-27 -15 -88 -25 -135 -10 -47 -21 -114 -25 -150 -6 -64 -6 -65 24 -88 28 -20
31 -28 31 -75 0 -29 -3 -62 -6 -74 l-6 -21 -36 25 c-21 13 -49 27 -64 30 -16
3 -28 9 -28 13 0 3 -35 37 -77 75 -116 101 -113 95 -108 260 6 167 6 165 18
165 14 0 141 -71 149 -84 4 -6 5 -19 2 -28 -10 -33 11 -17 67 49 18 22 40 79
33 86 -5 5 -10 26 -20 94 -3 26 -8 57 -10 68 -2 11 -7 40 -10 65 -3 25 -8 54
-10 65 -2 11 -6 45 -9 75 -3 30 -8 73 -11 95 -4 22 -8 54 -10 70 -2 17 -5 39
-8 51 -2 12 -7 45 -11 75 -3 30 -8 65 -11 79 -2 14 -7 48 -9 75 -3 28 -9 75
-14 105 -6 30 -12 87 -16 127 -3 40 -7 78 -10 85 -2 7 -6 41 -10 75 -3 35 -8
69 -11 77 -4 9 3 16 18 19 13 2 25 5 28 6 3 0 11 -8 18 -19z"/>
<path d="M4046 4596 c3 -8 -5 -21 -18 -30 -12 -9 -17 -16 -11 -16 16 0 43 29
43 46 0 8 -4 14 -10 14 -5 0 -7 -6 -4 -14z"/>
</g>
</svg>
