<svg xmlns="http://www.w3.org/2000/svg" viewBox="0 0 169.1 165.22"><defs><style>.cls-1{fill:#8ff9f9;}</style></defs><g id="Capa_2" data-name="Capa 2"><g id="Capa_2-2" data-name="Capa 2"><g id="mira"><path class="cls-1" d="M6.1,79.72.18,79.33l-.06.91,7.32.48A4.2,4.2,0,0,1,6.1,79.72Z"/><path class="cls-1" d="M38.15,84.81,0,85v.91l38.16-.15A5.41,5.41,0,0,1,38.15,84.81Z"/><polygon class="cls-1" points="7.28 90.06 0.22 90.58 0.28 91.48 7.28 90.96 7.28 90.06"/><polygon class="cls-1" points="7.28 80.62 7.28 79.77 0.17 79.33 0.12 80.23 7.28 80.71 7.28 80.62"/><path class="cls-1" d="M163,91.09l5.92.39.06-.91-7.32-.48A4.32,4.32,0,0,1,163,91.09Z"/><path class="cls-1" d="M131,86l38.15-.14V85l-38.15.15A5.41,5.41,0,0,1,131,86Z"/><polygon class="cls-1" points="161.82 80.75 168.88 80.23 168.81 79.33 161.82 79.85 161.82 80.75"/><polygon class="cls-1" points="161.82 90.19 161.82 91.04 168.92 91.48 168.98 90.58 161.82 90.1 161.82 90.19"/><path class="cls-1" d="M62.16,14.36,58.59,4.64,57.74,5l3.48,9.48Z"/><path class="cls-1" d="M72.53,16,69.42,1.63l-.88.19,3,13.73C71.85,15.69,72.19,15.85,72.53,16Z"/><polygon class="cls-1" points="89.39 36.52 91.81 0.24 90.91 0.18 88.48 36.52 89.39 36.52"/><polygon class="cls-1" points="99.97 16.08 102.94 1.9 102.05 1.71 99.05 16.08 99.97 16.08"/><path class="cls-1" d="M110.07,14.27h.34l3.31-9.2-.85-.3-3.43,9.52Q109.74,14.27,110.07,14.27Z"/><path class="cls-1" d="M120.53,16.24,124,9.74l-.8-.42-3.44,6.52A4.36,4.36,0,0,1,120.53,16.24Z"/><path class="cls-1" d="M130.08,20.45l3.37-4.67-.74-.53L129.26,20C129.54,20.17,129.81,20.3,130.08,20.45Z"/><path class="cls-1" d="M139.24,26,142,23.08l-.65-.63-2.88,3A4.07,4.07,0,0,1,139.24,26Z"/><path class="cls-1" d="M37.44,22.24l-3.21-3.8-.69.58,3,3.6C36.87,22.5,37.15,22.37,37.44,22.24Z"/><path class="cls-1" d="M46.78,17.3l-3.4-5.4-.77.48,3.32,5.28Z"/><polygon class="cls-1" points="57.03 14.89 53.35 6.7 52.53 7.07 56.04 14.89 57.03 14.89"/><path class="cls-1" d="M67.3,14.5,64,2.94l-.87.25,3.25,11.2Z"/><polygon class="cls-1" points="78.77 27.1 74.97 0.69 74.07 0.82 77.75 26.45 78.77 27.1"/><rect class="cls-1" x="85.37" width="0.91" height="55.41" transform="translate(-0.08 0.25) rotate(-0.16)"/><polygon class="cls-1" points="93.91 26.33 97.41 0.88 96.51 0.75 92.89 27.1 93.91 26.33"/><polygon class="cls-1" points="105.26 14.33 108.39 3.3 107.52 3.06 104.32 14.33 105.26 14.33"/><path class="cls-1" d="M115.54,14.9l3.38-7.67-.83-.36-3.49,7.91A5.61,5.61,0,0,1,115.54,14.9Z"/><path class="cls-1" d="M125.3,18.26l3.51-5.67-.77-.47-3.6,5.8Z"/><path class="cls-1" d="M134.65,23.12l3.2-3.84-.69-.58-3.28,3.92Z"/><path class="cls-1" d="M32.52,24.75,30,22.17l-.65.63L32,25.53A4.51,4.51,0,0,1,32.52,24.75Z"/><path class="cls-1" d="M42.11,19.68,38.69,15l-.73.54,3.36,4.59Z"/><path class="cls-1" d="M51.84,15.77,48.28,9.13l-.8.43L50.92,16Z"/><polygon class="cls-1" points="62.15 14.33 58.59 4.64 57.74 4.95 61.18 14.33 62.15 14.33"/><path class="cls-1" d="M72.53,16,69.42,1.63l-.88.19,3,13.73C71.85,15.69,72.19,15.85,72.53,16Z"/><polygon class="cls-1" points="83.23 36.52 80.57 0.15 79.67 0.22 82.32 36.52 83.23 36.52"/><path class="cls-1" d="M109.53,150.86l3.57,9.72.85-.31-3.48-9.48Z"/><path class="cls-1" d="M99.16,149.21l3.11,14.39.88-.2-3-13.73C99.84,149.53,99.5,149.37,99.16,149.21Z"/><polygon class="cls-1" points="82.29 128.71 79.87 164.98 80.78 165.04 83.2 128.71 82.29 128.71"/><polygon class="cls-1" points="71.72 149.14 68.75 163.32 69.64 163.51 72.64 149.14 71.72 149.14"/><path class="cls-1" d="M61.62,151h-.34L58,160.14l.86.3,3.43-9.52C62.05,150.94,61.83,151,61.62,151Z"/><path class="cls-1" d="M51.16,149l-3.43,6.5.8.42L52,149.38A4.36,4.36,0,0,1,51.16,149Z"/><path class="cls-1" d="M41.61,144.78l-3.37,4.66L39,150l3.46-4.78Z"/><path class="cls-1" d="M32.45,139.27l-2.77,2.87.66.63,2.88-3A4.07,4.07,0,0,1,32.45,139.27Z"/><path class="cls-1" d="M134.25,143l3.21,3.8.69-.58-3-3.6Z"/><path class="cls-1" d="M124.91,147.92l3.4,5.4.76-.48-3.32-5.28C125.47,147.68,125.19,147.81,124.91,147.92Z"/><polygon class="cls-1" points="114.66 150.33 118.33 158.52 119.16 158.15 115.65 150.33 114.66 150.33"/><path class="cls-1" d="M104.38,150.72l3.36,11.56.87-.25-3.25-11.2C105,150.8,104.71,150.77,104.38,150.72Z"/><polygon class="cls-1" points="92.92 138.12 96.72 164.53 97.61 164.4 93.93 138.78 92.92 138.12"/><rect class="cls-1" x="85.41" y="109.81" width="0.91" height="55.41" transform="translate(-0.4 0.25) rotate(-0.16)"/><polygon class="cls-1" points="77.78 138.89 74.28 164.35 75.18 164.47 78.8 138.12 77.78 138.89"/><polygon class="cls-1" points="66.42 150.89 63.3 161.92 64.17 162.17 67.37 150.89 66.42 150.89"/><path class="cls-1" d="M56.15,150.32,52.76,158l.83.36,3.5-7.91A4.64,4.64,0,0,1,56.15,150.32Z"/><path class="cls-1" d="M46.39,147l-3.51,5.67.77.48,3.6-5.81Z"/><path class="cls-1" d="M37,142.1l-3.2,3.84.7.58,3.27-3.92Z"/><path class="cls-1" d="M139.16,140.47l2.51,2.58.65-.63-2.65-2.73A4,4,0,0,1,139.16,140.47Z"/><path class="cls-1" d="M129.58,145.54l3.42,4.67.73-.53-3.36-4.6Z"/><path class="cls-1" d="M119.85,149.45l3.56,6.64.8-.43-3.44-6.42Z"/><polygon class="cls-1" points="109.54 150.89 113.1 160.58 113.95 160.27 110.5 150.89 109.54 150.89"/><path class="cls-1" d="M99.16,149.21l3.11,14.39.88-.2-3-13.73C99.84,149.53,99.5,149.37,99.16,149.21Z"/><polygon class="cls-1" points="88.46 128.71 91.12 165.07 92.02 165 89.37 128.71 88.46 128.71"/></g></g></g></svg>