<svg xmlns="http://www.w3.org/2000/svg" viewBox="0 0 222 129"><defs><style>.cls-1{fill:#fd0;}.cls-2{fill:none;stroke:#fd0;stroke-miterlimit:10;stroke-width:1.5px;}</style></defs><g id="Capa_2" data-name="Capa 2"><g id="Capa_2-2" data-name="Capa 2"><path class="cls-1" d="M217.16,129h-50a3.81,3.81,0,0,1-2.85-1.27l-2.8-3.12a1.8,1.8,0,0,0-1.36-.61H59.72a1.86,1.86,0,0,0-1.33.57l-3.07,3.24A3.87,3.87,0,0,1,52.54,129H4.84A4.84,4.84,0,0,1,0,124.16V4.84A4.84,4.84,0,0,1,4.84,0h144.4a3.85,3.85,0,0,1,2.49.92l6.59,5.64a1.84,1.84,0,0,0,1.19.44h57.65A4.84,4.84,0,0,1,222,11.84V124.16A4.84,4.84,0,0,1,217.16,129ZM59.72,122H160.1a3.83,3.83,0,0,1,2.85,1.27l2.8,3.12a1.8,1.8,0,0,0,1.36.61h50a2.84,2.84,0,0,0,2.84-2.84V11.84A2.84,2.84,0,0,0,217.16,9H159.51A3.85,3.85,0,0,1,157,8.08l-6.59-5.64A1.84,1.84,0,0,0,149.24,2H4.84A2.84,2.84,0,0,0,2,4.84V124.16A2.84,2.84,0,0,0,4.84,127h47.7a1.85,1.85,0,0,0,1.33-.57l3.07-3.24A3.89,3.89,0,0,1,59.72,122Z"/><rect class="cls-1" x="5.51" y="4.8" width="1.5" height="4.65"/><rect class="cls-1" x="8.76" y="4.8" width="1.5" height="4.65"/><rect class="cls-1" x="15.25" y="4.8" width="1.5" height="4.65"/><rect class="cls-1" x="12" y="4.8" width="1.5" height="4.65"/><rect class="cls-1" x="18.49" y="4.8" width="1.5" height="4.65"/><rect class="cls-1" x="21.73" y="4.8" width="1.5" height="4.65"/><rect class="cls-1" x="199.41" y="119.79" width="1.5" height="4.65"/><rect class="cls-1" x="202.65" y="119.79" width="1.5" height="4.65"/><rect class="cls-1" x="209.14" y="119.79" width="1.5" height="4.65"/><rect class="cls-1" x="205.9" y="119.79" width="1.5" height="4.65"/><rect class="cls-1" x="212.38" y="119.79" width="1.5" height="4.65"/><line class="cls-2" x1="216.38" y1="119.79" x2="216.38" y2="124.44"/></g></g></svg>