<svg xmlns="http://www.w3.org/2000/svg" viewBox="0 0 86.87 30.27"><defs><style>.cls-1{fill:#fe4d1b;}</style></defs><g id="Capa_2" data-name="Capa 2"><g id="Capa_2-2" data-name="Capa 2"><g id="xWing"><path class="cls-1" d="M43.57,13a3.11,3.11,0,0,0-3,1.73l1.38.59c.3-.71,1.25-.81,1.65-.82a2.7,2.7,0,0,1,2.37.91,3.43,3.43,0,0,1,0,3.43c-1.12,1.24-3,.78-4.26-.19l-.91,1.19a5.91,5.91,0,0,0,3.45,1.26,3.71,3.71,0,0,0,2.93-1.37l.11-.17a4.92,4.92,0,0,0,0-4.87C46.72,13.52,45,13,43.57,13Z"/><path class="cls-1" d="M84.47,24.21l.33,0L84,24a4.86,4.86,0,0,0-1.28-.28L58,18.37a.64.64,0,0,0-.41-.28L51.87,17c0-.71,0-1.43,0-2.17l9.55-2.35,20.66-5,1.3.35h0a2.13,2.13,0,0,0,.7.14c1.56,0,2.78-1.75,2.78-4s-1.22-4-2.78-4L84,0a.58.58,0,0,0-.23,0L81,.33c-.56,0-1.25.44-2.65,1.31-1.74,1.08-4.12,2.56-6.11,2.78A.68.68,0,0,0,72,4.5C71,5.08,69.67,6,70,6.94c.13.33.48.67,1.32.68l-.16.15L60.41,8.86a.92.92,0,0,0-1.31-.11c.16.88-.57,2.07-2.52,2.57-2.25.5-3.92.29-4.49-2.1h1.14a4,4,0,0,0,2.34.75,4.07,4.07,0,1,0-3.77-5.6L47.74,7.51a13.56,13.56,0,0,0-8.85.12l-4-3.1a4.06,4.06,0,1,0-1.47,4.69h1c-.57,2.39-2.24,2.6-4.49,2.1-2-.5-2.68-1.69-2.52-2.57a.92.92,0,0,0-1.31.11L15.28,7.77l-.39-.38a1.45,1.45,0,0,0,1-1.15,1.76,1.76,0,0,0-1.11-1.76.83.83,0,0,0-.21-.06c-2-.22-4.37-1.7-6.11-2.78C7.09.77,6.4.35,5.9.34L3.15,0a.86.86,0,0,0-.23,0L2.78,0C1.22,0,0,1.75,0,4S1.22,8,2.78,8a2.13,2.13,0,0,0,.7-.14h0l1.12-.3,20.45,5L35.13,15c-.05.69-.05,1.36,0,2l-5.83,1.11a.64.64,0,0,0-.41.28L4.11,23.75A4.86,4.86,0,0,0,2.83,24l-.76.16.33,0A3.19,3.19,0,0,0,.39,27c0,1.8,1.9,3.28,4.22,3.28a4.83,4.83,0,0,0,3.08-1.05l5.63-1.9S15,26.75,15,26.13s-1.56-1.65-1.56-1.65l-3.8-.15,13.17-2.08-.33.17a.65.65,0,0,0-.34.73.66.66,0,0,0,.64.5h4.77a4,4,0,0,0-.55,2,4.07,4.07,0,0,0,8.14,0c0-.07,0-.14,0-.21a3.74,3.74,0,0,0,2.21-2.1,12.42,12.42,0,0,0,12.23.06,3.77,3.77,0,0,0,2,1.94c0,.11,0,.21,0,.31a4.07,4.07,0,0,0,8.14,0,4,4,0,0,0-.55-2h5a.66.66,0,0,0,.64-.5.65.65,0,0,0-.34-.73l-.33-.17,13.17,2.08-3.8.15s-1.56,1-1.56,1.65,1.68,1.19,1.68,1.19l5.63,1.9a4.83,4.83,0,0,0,3.08,1.05c2.32,0,4.22-1.48,4.22-3.28A3.19,3.19,0,0,0,84.47,24.21ZM84.09,6.67l-.15,0A6.18,6.18,0,0,1,83.51,6a13.18,13.18,0,0,0,1.54,0A1.27,1.27,0,0,1,84.09,6.67ZM85.57,4a4.12,4.12,0,0,1-.25,1.44A12.41,12.41,0,0,1,83.17,2.9a5.26,5.26,0,0,1,.94-1.6C84.81,1.32,85.57,2.42,85.57,4Zm-13,1.72c2.25-.3,4.71-1.83,6.51-2.95.45-.28,1-.6,1.38-.83a2.92,2.92,0,0,0-1.35,2.73c0,.45,1.1.86,2.52,1.11,0,.1.07.19.11.28L78.8,5.27a.76.76,0,0,0-.26,0l-6.27.93h0a4.82,4.82,0,0,1-.59.11A7.6,7.6,0,0,1,72.55,5.7Zm-58.22,0c.23.14.31.29.3.36a.24.24,0,0,1-.15.12L8.33,5.26h-.1l-.16,0L5.15,6c0-.09.07-.18.11-.28,1.42-.25,2.52-.66,2.52-1.11A2.91,2.91,0,0,0,6.39,1.9c.42.23,1,.56,1.42.85C9.62,3.87,12.08,5.4,14.33,5.7ZM2.76,1.3A5.26,5.26,0,0,1,3.7,2.9,12.41,12.41,0,0,1,1.55,5.42,4.12,4.12,0,0,1,1.3,4C1.3,2.42,2.06,1.32,2.76,1.3ZM1.82,6A13.18,13.18,0,0,0,3.36,6a6.18,6.18,0,0,1-.43.66l-.15,0A1.27,1.27,0,0,1,1.82,6Zm55,13.29v1.06H51.76a3.19,3.19,0,0,0,.23-2ZM37.6,21.42c-1.1-3-1.09-6.81,0-11.26a11.72,11.72,0,0,1,11.76,0,19.87,19.87,0,0,1,0,11.27A10.55,10.55,0,0,1,37.6,21.42Zm18-18.09A2.57,2.57,0,1,1,53,5.9,2.58,2.58,0,0,1,55.57,3.33ZM28.5,5.9a2.57,2.57,0,1,1,2.57,2.57A2.58,2.58,0,0,1,28.5,5.9ZM30,19.27l4.85-.93a3.19,3.19,0,0,0,.23,2H30ZM2.51,28.34c.23-.07.5-.15.76-.25a2,2,0,0,0,.4.44H3.8a1.64,1.64,0,0,0,.58-.88.36.36,0,0,0,0-.14A2.14,2.14,0,0,0,4.92,27a2.25,2.25,0,0,0,0-2c1.43.11,2.6,1,2.6,2S6.2,29,4.61,29A3.7,3.7,0,0,1,2.51,28.34Zm24.3-6.71h3.76a4.08,4.08,0,0,0-1.86.72H25.43Zm4.26,6.59a2.57,2.57,0,1,1,2.57-2.57A2.57,2.57,0,0,1,31.07,28.22Zm3.77-4.07a4.09,4.09,0,0,0-3.28-2.52h4.26c.09.3.17.6.28.88l.06.16,0,0A2.51,2.51,0,0,1,34.84,24.15Zm15.85-1.39.15-.1.06-.17c.1-.28.17-.57.25-.86h3.92a4.07,4.07,0,0,0-3.24,2.42A2.53,2.53,0,0,1,50.69,22.76Zm4.88,5.46a2.57,2.57,0,1,1,2.57-2.57A2.57,2.57,0,0,1,55.57,28.22Zm2.36-5.87a4.07,4.07,0,0,0-1.87-.72h4l1.38.72ZM79.33,27c0-1,1.17-1.85,2.6-2a2.25,2.25,0,0,0,0,2,2.14,2.14,0,0,0,.52.52.36.36,0,0,0,0,.14,1.64,1.64,0,0,0,.58.88h.13a2,2,0,0,0,.4-.44c.26.1.53.18.76.25a3.7,3.7,0,0,1-2.1.63C80.67,29,79.33,28.06,79.33,27Z"/></g></g></g></svg>